<?xml version="1.0" standalone="no"?>
<!DOCTYPE svg PUBLIC "-//W3C//DTD SVG 20010904//EN"
 "http://www.w3.org/TR/2001/REC-SVG-20010904/DTD/svg10.dtd">
<svg version="1.0" xmlns="http://www.w3.org/2000/svg"
 width="300.000000pt" height="300.000000pt" viewBox="0 0 300.000000 300.000000"
 preserveAspectRatio="xMidYMid meet">
<metadata>
Created by potrace 1.15, written by Peter Selinger 2001-2017
</metadata>
<g transform="translate(0.000000,300.000000) scale(0.100000,-0.100000)"
fill="#000000" stroke="none">
<path d="M1350 2959 c-604 -68 -1105 -503 -1256 -1089 -33 -127 -29 -161 26
-273 80 -162 207 -295 350 -367 108 -55 184 -72 335 -77 143 -5 245 7 372 43
l52 15 0 197 c0 217 16 362 57 520 103 396 354 674 688 761 97 26 233 36 309
23 73 -12 66 -3 -58 67 -260 148 -578 213 -875 180z"/>
<path d="M2112 2650 c-185 -26 -364 -121 -475 -252 -97 -116 -150 -214 -207
-386 l-39 -115 127 -71 c224 -125 368 -233 508 -377 186 -194 287 -391 315
-619 24 -197 -38 -430 -155 -583 -20 -26 -32 -47 -28 -47 16 0 177 101 250
157 97 74 240 227 306 327 201 302 287 661 242 1002 -45 340 -186 624 -429
865 -69 69 -95 88 -125 93 -70 11 -227 15 -290 6z"/>
<path d="M54 1450 c13 -380 152 -698 425 -971 172 -171 349 -282 564 -354 179
-59 250 -70 467 -70 212 0 281 10 457 66 105 34 120 48 193 175 73 127 102
228 107 374 5 106 2 139 -16 209 -40 161 -142 330 -279 465 l-60 58 -94 -57
c-212 -132 -478 -241 -683 -281 -133 -26 -343 -24 -458 4 -274 68 -480 231
-598 475 l-31 62 6 -155z"/>
</g>
</svg>
