<?xml version="1.0" encoding="UTF-8"?><svg xmlns="http://www.w3.org/2000/svg" xmlns:xlink="http://www.w3.org/1999/xlink" viewBox="0 0 50 50" version="1.1"><path d="M15.688 4c-1.602 0-2.981.887-3.782 2.188l-5.094 9.125L11.188 23 17.5 12h23.813l-3.22-5.813c-.8-1.3-2.179-2.187-3.78-2.187zm2.906 10l-6.282 11 5.094 8.906L18.594 36h12.718l6.375-11-6.374-11zm15.093 0L40 25l-.313.5L27.907 46h6.405c1.602 0 2.981-.887 3.782-2.188l9.312-16.5c.801-1.398.801-3.199 0-4.5L42.5 14zM5.595 17.406L2.5 22.813a4.515 4.515 0 0 0 0 4.5l9.313 16.5c.8 1.398 2.18 2.187 3.78 2.187H25.5l4.688-8H17.5l-1.688-3-.124-.188L10 25zM25 20c2.8 0 5 2.2 5 5s-2.2 5-5 5-5-2.2-5-5 2.2-5 5-5z" id="surface1"/><metadata><rdf:RDF xmlns:rdf="http://www.w3.org/1999/02/22-rdf-syntax-ns#" xmlns:rdfs="http://www.w3.org/2000/01/rdf-schema#" xmlns:dc="http://purl.org/dc/elements/1.1/"><rdf:Description about="https://iconscout.com/legal#licenses" dc:title="google,cloud,platform,filled" dc:description="google,cloud,platform,filled" dc:publisher="Iconscout" dc:date="2017-12-09" dc:format="image/svg+xml" dc:language="en"><dc:creator><rdf:Bag><rdf:li>Icons8</rdf:li></rdf:Bag></dc:creator></rdf:Description></rdf:RDF></metadata></svg>