<?xml version="1.0"?>
<svg xmlns="http://www.w3.org/2000/svg" viewBox="0 0 50 50">
    <path d="M 44.1875 2.3125 L 29.40625 18.40625 L 21.6875 11.1875 L 18.3125 14.8125 L 29.59375 25.59375 L 47.8125 5.6875 L 44.1875 2.3125 z M 11 5 C 6 5 2 9 2 14 L 2 39 C 2 44 6 48 11 48 L 36 48 C 41 48 45 44 45 39 L 45 14 C 45 13.3 44.9125 12.6 44.8125 12 L 43 13.90625 L 43 39 C 43 42.9 39.9 46 36 46 L 11 46 C 7.1 46 4 42.9 4 39 L 4 14 C 4 10.1 7.1 7 11 7 L 36 7 C 36.4 7 36.69375 6.99375 37.09375 7.09375 L 38.6875 5.40625 C 37.7875 5.10625 36.9 5 36 5 L 11 5 z M 13.3125 22.40625 C 9.2125 22.40625 6.5 24.60625 6.5 27.90625 C 6.5 30.60625 8.10625 32.29375 11.40625 33.09375 L 13.8125 33.6875 C 16.3125 34.2875 17.3125 35.09375 17.3125 36.59375 C 17.3125 38.29375 15.6125 39.5 13.3125 39.5 C 10.8125 39.5 9.1125 38.39375 8.8125 36.59375 L 6 36.59375 C 6.2 39.89375 8.99375 42.09375 13.09375 42.09375 C 17.49375 42.09375 20.3125 39.9125 20.3125 36.3125 C 20.3125 33.5125 18.70625 31.9 14.90625 31 L 12.8125 30.5 C 10.4125 29.9 9.40625 29.2125 9.40625 27.8125 C 9.40625 26.1125 10.8875 25 13.1875 25 C 15.3875 25 16.8875 26.1125 17.1875 27.8125 L 20 27.8125 C 19.9 24.6125 17.1125 22.40625 13.3125 22.40625 z M 29.59375 27.40625 C 25.59375 27.40625 23.09375 30.3125 23.09375 34.8125 C 23.09375 39.3125 25.59375 42.09375 29.59375 42.09375 C 32.79375 42.09375 35.0875 40.6 35.6875 38 L 33 38 C 32.5 39.1 31.2875 39.6875 29.6875 39.6875 C 27.4875 39.6875 26.00625 38.0875 25.90625 35.6875 L 25.90625 35.5 L 35.90625 35.5 L 35.90625 34.5 C 35.90625 30.1 33.49375 27.40625 29.59375 27.40625 z M 29.59375 29.6875 C 31.69375 29.6875 32.99375 31.10625 33.09375 33.40625 L 26 33.40625 C 26.1 31.20625 27.49375 29.6875 29.59375 29.6875 z"/>
</svg>
